<svg width="48" height="48" viewBox="0 0 48 48" fill="none" xmlns="http://www.w3.org/2000/svg">
<rect width="48" height="48" rx="10" fill="#1C1D20"/>
<path d="M36.7194 24.0526L36.8437 21.4303L34.5525 22.8568L33.842 21.6781L36.2754 20.4822L33.842 19.2864L34.5525 18.0906L36.8437 19.517L36.7194 16.8947H38.1226L37.9982 19.517L40.2895 18.0906L40.9999 19.2864L38.5666 20.4822L40.9999 21.6781L40.2895 22.8568L37.9982 21.4303L38.1226 24.0526H36.7194Z" fill="#FAFAFA"/>
<path d="M31.5506 19.8026V21.3082H25.7896V19.8026H31.5506ZM27.3599 29.4211V18.6842C27.3599 18.0877 27.4999 17.5916 27.7799 17.1959C28.066 16.7944 28.4372 16.4961 28.8937 16.3011C29.3563 16.1004 29.8524 16 30.3819 16C30.7897 16 31.1367 16.0315 31.4227 16.0946C31.7088 16.1577 31.9188 16.2122 32.0527 16.2581L31.578 17.7723C31.4867 17.7436 31.368 17.712 31.2219 17.6776C31.0819 17.6432 30.9054 17.626 30.6923 17.626C30.2115 17.626 29.8646 17.7407 29.6515 17.9701C29.4385 18.1938 29.332 18.5207 29.332 18.9509V29.4211H27.3599Z" fill="#FAFAFA"/>
<path d="M26.1822 19.8026V21.3082H20.4211V19.8026H26.1822ZM21.9915 29.4211V18.6842C21.9915 18.0877 22.1315 17.5916 22.4115 17.1959C22.6975 16.7944 23.0688 16.4961 23.5253 16.3011C23.9879 16.1004 24.484 16 25.0135 16C25.4213 16 25.7683 16.0315 26.0543 16.0946C26.3404 16.1577 26.5504 16.2122 26.6843 16.2581L26.2095 17.7723C26.1182 17.7436 25.9996 17.712 25.8535 17.6776C25.7135 17.6432 25.537 17.626 25.3239 17.626C24.8431 17.626 24.4962 17.7407 24.2831 17.9701C24.0701 18.1938 23.9636 18.5207 23.9636 18.9509V29.4211H21.9915Z" fill="#FAFAFA"/>
<path d="M16.186 29.4211C15.2194 29.4211 14.3824 29.2194 13.6751 28.816C12.9678 28.4127 12.4226 27.8446 12.0395 27.1118C11.6622 26.3733 11.4736 25.5126 11.4736 24.5298C11.4736 23.5527 11.6593 22.6921 12.0306 21.9479C12.4079 21.2037 12.9354 20.6242 13.6132 20.2095C14.2969 19.7891 15.0986 19.5789 16.018 19.5789C16.578 19.5789 17.1203 19.667 17.6448 19.8431C18.1694 20.0192 18.641 20.2976 19.0594 20.6782C19.4779 21.0588 19.808 21.553 20.0497 22.1609C20.2972 22.7688 20.421 23.5016 20.421 24.3594V25.0241H12.5611V23.6351H19.4308L18.5378 24.0952C18.5378 23.5101 18.4435 22.9931 18.2549 22.5444C18.0663 22.0956 17.7834 21.7462 17.4061 21.4962C17.0348 21.2406 16.5721 21.1128 16.018 21.1128C15.464 21.1128 14.9895 21.2406 14.5946 21.4962C14.2056 21.7519 13.9079 22.0899 13.7016 22.5103C13.4953 22.9307 13.3922 23.3908 13.3922 23.8907V24.8366C13.3922 25.4899 13.5101 26.0438 13.7458 26.4982C13.9816 26.9527 14.3087 27.2992 14.7272 27.5378C15.1516 27.7764 15.6438 27.8957 16.2037 27.8957C16.5692 27.8957 16.8992 27.8446 17.1939 27.7424C17.4945 27.6401 17.7539 27.4867 17.972 27.2822C18.1901 27.0777 18.3551 26.8249 18.4671 26.5238L20.2884 26.8561C20.141 27.3674 19.8817 27.8162 19.5104 28.2025C19.139 28.5888 18.6704 28.8899 18.1046 29.1058C17.5446 29.316 16.9051 29.4211 16.186 29.4211Z" fill="#FAFAFA"/>
<path d="M8.52903 19.725H10.3437V30.0183C10.3493 30.6636 10.2373 31.2081 10.0077 31.6518C9.77802 32.0954 9.44197 32.4296 8.99951 32.6543C8.55704 32.8848 8.01376 33 7.36966 33H7V31.3838H7.29404C7.73091 31.3838 8.04456 31.2657 8.23499 31.0295C8.42542 30.7933 8.52343 30.4533 8.52903 30.0097V19.725ZM9.42797 18.2384C9.10872 18.2384 8.83708 18.129 8.61305 17.91C8.38901 17.6911 8.277 17.4289 8.277 17.1235C8.277 16.8124 8.38901 16.5474 8.61305 16.3284C8.83708 16.1095 9.10872 16 9.42797 16C9.74162 16 10.0105 16.1095 10.2345 16.3284C10.4641 16.5474 10.5789 16.8124 10.5789 17.1235C10.5789 17.4289 10.4641 17.6911 10.2345 17.91C10.0105 18.129 9.74162 18.2384 9.42797 18.2384Z" fill="#FAFAFA"/>
</svg>
